<svg width="371" height="94" viewBox="0 0 371 94" fill="none" xmlns="http://www.w3.org/2000/svg">
<path d="M48.1323 50.5606C42.0013 50.5606 37.1301 52.976 33.6866 57.7236C31.6709 54.0588 27.6396 50.5606 21.5086 50.5606C15.2096 50.5606 11.5142 53.3092 8.91062 56.2244V55.3915C8.91062 52.976 6.89494 50.9771 4.45934 50.9771C2.02373 50.9771 0.092041 52.976 0.092041 55.3915V88.9577C0.092041 91.3731 2.02373 93.2888 4.45934 93.2888C6.89494 93.2888 8.91062 91.3731 8.91062 88.9577V65.7195C10.9263 62.4712 13.9498 58.8064 19.4089 58.8064C24.6161 58.8064 26.6318 61.3051 26.6318 67.8018V88.9577C26.6318 91.3731 28.5634 93.2888 30.9991 93.2888C33.4347 93.2888 35.4503 91.3731 35.4503 88.9577V65.7195C37.466 62.4712 40.4895 58.8064 45.9486 58.8064C51.1558 58.8064 53.1715 61.3051 53.1715 67.8018V88.9577C53.1715 91.3731 55.1032 93.2888 57.5388 93.2888C59.9744 93.2888 61.99 91.3731 61.99 88.9577V66.3859C62.158 58.7231 57.7907 50.5606 48.1323 50.5606ZM90.4614 50.5606C85.5902 50.5606 81.139 51.4768 76.5197 53.4758C74.924 54.1421 73.9161 55.4748 73.9161 57.2239C73.9161 59.3894 75.5958 61.0552 77.6955 61.0552C78.0315 61.0552 78.4514 60.972 78.9553 60.8887C82.0628 59.8892 85.0023 59.0563 89.2017 59.0563C96.0046 59.0563 98.8601 61.555 98.9441 67.7185H90.2095C78.2834 67.7185 71.2286 72.7992 71.2286 81.2116C71.2286 89.4574 78.1154 93.7885 84.9183 93.7885C90.3775 93.7885 95.0807 92.1227 98.9441 88.9577V89.0409C98.9441 91.4564 100.876 93.3721 103.311 93.3721C105.747 93.3721 107.763 91.4564 107.763 89.0409V66.8856C107.763 58.7231 102.388 50.5606 90.4614 50.5606ZM87.6059 85.7093C82.6507 85.7093 80.0471 83.8769 80.0471 80.2954C80.0471 78.9628 80.0471 74.9648 91.1333 74.9648H98.8601V80.3787C96.5925 82.8774 92.3091 85.7093 87.6059 85.7093ZM125.064 34.9019C127.751 34.9019 129.935 37.0675 129.935 39.7328V40.066C129.935 42.7313 127.751 44.8968 125.064 44.8968H124.56C121.872 44.8968 119.689 42.7313 119.689 40.066V39.7328C119.689 37.0675 121.872 34.9019 124.56 34.9019H125.064ZM124.812 50.8938C127.331 50.8938 129.263 52.8928 129.263 55.3082V88.8744C129.263 91.2898 127.331 93.2055 124.812 93.2055C122.376 93.2055 120.445 91.2898 120.445 88.8744V55.3082C120.445 52.8095 122.376 50.8938 124.812 50.8938ZM147.236 33.6526C149.756 33.6526 151.688 35.6516 151.688 38.067V88.8744C151.688 91.2898 149.756 93.2055 147.236 93.2055C144.801 93.2055 142.869 91.2898 142.869 88.8744V38.067C142.869 35.5683 144.801 33.6526 147.236 33.6526ZM182.259 50.5606C175.96 50.5606 170.752 52.8928 167.225 57.3072C164.202 61.1385 162.522 66.3859 162.522 72.1329C162.522 85.626 170.501 93.7052 183.77 93.7052C191.077 93.7052 194.689 92.0394 197.964 90.1237C199.56 89.2075 200.4 87.8749 200.4 86.5422C200.4 84.3767 198.636 82.6276 196.368 82.6276C195.696 82.6276 195.109 82.7108 194.605 83.044C192.253 84.2934 189.313 85.3762 184.358 85.3762C176.967 85.3762 172.6 81.9612 171.508 75.4646H197.292C199.896 75.4646 201.743 73.6322 201.743 71.1334C201.911 56.974 191.749 50.5606 182.259 50.5606ZM182.259 58.2234C185.954 58.2234 192.169 60.3056 193.009 67.9684H171.508C172.348 61.2218 177.387 58.2234 182.259 58.2234ZM232.567 50.5606C235.002 50.5606 236.85 52.393 236.85 54.8084C236.85 57.2239 235.002 58.973 232.399 58.973H231.979C227.443 58.973 223.412 61.2218 220.556 65.3031V88.8744C220.556 91.2898 218.541 93.2055 216.105 93.2055C213.67 93.2055 211.738 91.2898 211.738 88.8744V55.3082C211.738 52.8928 213.67 50.8938 216.105 50.8938C218.541 50.8938 220.556 52.8928 220.556 55.3082V56.391C224.084 52.5596 227.947 50.5606 232.147 50.5606H232.567Z" fill="black"/>
<path d="M357.153 0.996429H266.552C259.569 0.996429 253.779 6.7301 253.779 13.6442V55.8036V64.0668V94L271.405 76.7147H357.238C364.22 76.7147 370.011 70.981 370.011 64.0668V13.6442C369.926 6.64579 364.22 0.996429 357.153 0.996429Z" fill="#4F46E5"/>
<path d="M340.463 30.3393C350.171 30.3393 354.598 38.0123 354.598 45.0951C354.598 47.0344 353.151 48.3835 351.192 48.3835H333.311C334.162 52.6838 337.228 54.9604 342.081 54.9604C345.572 54.9604 347.531 54.2015 349.234 53.3584C349.66 53.1054 350.085 53.0211 350.596 53.0211C352.299 53.0211 353.662 54.3702 353.662 56.0566C353.662 57.1527 352.981 58.1645 351.788 58.8391C349.404 60.1882 346.85 61.3686 341.57 61.3686C332.033 61.3686 326.243 55.5506 326.243 45.854C326.243 34.471 333.907 30.3393 340.463 30.3393ZM312.023 25.3645C313.13 25.3645 313.896 26.2077 313.896 27.3039V30.8453H319.346C321.049 30.8453 322.411 32.1944 322.411 33.8807C322.411 35.5671 321.049 36.9162 319.346 36.9162H313.981V52.7681C313.981 55.0447 315.173 55.2134 316.791 55.2134C317.728 55.2134 318.239 55.0447 318.75 54.9604C319.175 54.8761 319.601 54.7075 320.112 54.7075C321.474 54.7075 323.007 55.8036 323.007 57.5743C322.922 58.6704 322.326 59.6823 321.219 60.1882C319.601 60.947 317.983 61.2843 316.195 61.2843C310.32 61.2843 307.169 58.5018 307.169 53.1897V36.9162H304.104C302.997 36.9162 302.23 36.073 302.23 35.0612C302.23 34.471 302.486 33.8807 302.997 33.4591L310.49 26.1234C310.66 25.9548 311.256 25.3645 312.023 25.3645ZM277.536 18.4504C279.41 18.4504 280.942 19.9681 280.942 21.8231V57.6586C280.942 59.5136 279.41 60.947 277.536 60.947C275.663 60.947 274.215 59.4293 274.215 57.6586V21.8231C274.215 19.9681 275.663 18.4504 277.536 18.4504ZM293.375 30.5923C295.248 30.5923 296.781 32.11 296.781 33.965V57.6586C296.781 59.5136 295.248 60.947 293.375 60.947C291.501 60.947 290.054 59.4293 290.054 57.6586V33.965C290.054 32.11 291.501 30.5923 293.375 30.5923ZM340.548 36.326C337.313 36.326 333.907 38.2653 333.311 42.7342H347.871C347.19 38.2653 343.784 36.326 340.548 36.326ZM293.545 19.2936C295.588 19.2936 297.206 20.8956 297.206 22.9193V23.1722C297.206 25.1959 295.588 26.798 293.545 26.798H293.204C291.161 26.798 289.543 25.1959 289.543 23.1722V22.9193C289.543 20.8956 291.161 19.2936 293.204 19.2936H293.545Z" fill="white"/>
</svg>
